<svg xmlns="http://www.w3.org/2000/svg" viewBox="0 0 1587 231" width="1587" height="231">
	<style>
		tspan { white-space:pre }
		.shp0 { fill: #ffffff } 
	</style>
	<path id="Shape 1 copy 4" class="shp0" d="M-20 139C-20 139 103.63 79.68 252 141C400.37 202.32 558.23 169.65 642 96C698.95 45.94 781.23 -80.17 1018 82C1139.8 165.43 1186.04 35.9 1297 97C1297 97 1524.03 202.63 1620 69L1620 890C1620 890 1582.42 1018.67 1452 914C1381.03 857.04 1342.87 808.52 1052 988C875.09 1097.16 726.22 879.43 472 1017C323.95 1097.12 309.53 1264.4 95 1180C-75.96 1112.74 -20 1000 -20 1000L-20 139Z" />
</svg>