<svg xmlns="http://www.w3.org/2000/svg" viewBox="0 0 648 236" width="648" height="236">
	<style>
		tspan { white-space:pre }
		.shp0 { fill: #ffffff } 
	</style>
	<path id="Shape 1 copy 2" class="shp0" d="M-20 -801C-20 -801 103.63 -860.32 252 -799C400.37 -737.68 558.7 -740.33 645 -811C965.7 -1073.61 881.54 -684.37 1297 -843C1297 -843 1485.04 -895.32 1620 -804L1620 121C1620 121 1591.57 86.6 1452 -26C1352.61 -106.19 1323.87 -171.48 1033 8C856.09 117.16 744.05 -56.92 472 77C324.53 149.59 313.53 290.4 99 206C-71.96 138.74 -20 60 -20 60L-20 -801Z" />
</svg>